<svg xmlns="http://www.w3.org/2000/svg" width="500" height="500" version="1.2">
  <style>
    .s1{fill:#fff}.s3{fill:#27ab66}.s6{fill:#000}
  </style>
  <g id="&lt;Group&gt;">
    <path id="&lt;Path&gt;" d="M273.8 466.1c-58.1 0-105.1-8.7-105.1-19.4 0-10.6 47-19.3 105.1-19.3 58.1 0 105.1 8.7 105.1 19.3 0 10.7-47 19.4-105.1 19.4z" style="fill:#545454"/>
    <path d="M355.4 407.2c-3.5 2.7-5.9 7.2-6.8 12.7-.9 5.2-.4 10.6.1 15.8l28-.8c.7-6-.4-11.9-3.3-16.6-3.7-5.9-10.5-10-18-11.1zM375.3 441.2q.6-1.8.9-3.6l-10.4.4c.6 2.9.6 6-.1 8.9h1.8c1.5 0 3.3-.1 4.6-.8 1.8-1 2.7-3.3 3.2-4.9zM323.7 447.6q.4-4.2 0-8.4l-10.5.3v7.9q-.1.2-.1.4h2.2zM296 437.3l8.5-.2c-.5-5.4-2.9-10.6-6.6-14.5q-.2.6-.4 1.1-.4.8-.7 1.6c-1.6 4-1.9 8.3-.8 12z" class="s1"/>
    <path d="M304.3 402c-2 .2-4 .4-5.7 1.3-1.3.6-2.7 1.9-2.9 3.6-.2 1.5.7 2.9 1.6 4.5.8 1.4 1.6 2.9 1.9 4.6.2 1.3 0 2.6-.3 3.9q.2 0 .4.2c4.5 4.4 7.4 10.6 7.9 16.9l38.8-1.2c-.5-5.3-1-10.9-.1-16.4.9-5.1 2.9-9.4 5.8-12.6-5.4 0-11.1 1.4-16.4 4.1-.3.1-1 .6-1.7 1.1-2.3 1.5-3.7 2.4-4.7 2.8q-.2.3-.4.4c-3.9 3-7.5 6.4-10.7 10.2-.3.3-.7.5-1 .5q-.5 0-.9-.3c-.6-.5-.7-1.4-.2-2 3.1-3.6 6.6-7 10.4-10q-.1-.2-.1-.5c-3.5 1.4-7.3 2.2-11.1 2.2q-.8 0-1.6-.1c-.7 0-1.3-.7-1.3-1.4.1-.8.7-1.3 1.5-1.3 4.3.2 8.8-.6 12.8-2.4q.1 0 .2-.1.2-.7.4-1.6c.3-.7.6-1.7.6-2 .1-2.1-.7-4.7-2.7-5.8-.9-.4-1.8-.5-2.9-.5-.9 0-1.8 0-2.8.2zM303.4 446.2c2.2 1.1 4.6 1.4 7.1 1.6q-.1-.2-.1-.4v-7.8l-13.3.4c1.4 2.8 3.7 5 6.3 6.2zM326.4 447.6l10.7-.2.1-8.6-10.8.3q.4 4.3 0 8.5zM355.1 446.9v.2l7.9-.1c.7-2.9.7-6 0-9l-8.1.3zM339.8 447.4l12.6-.2v-.2l-.2-8.6-12.3.3zM421.6 221.5q-.2 1-.7 2c-1.2 2.6-3.3 4.9-6.4 6.8-3.9 2.3-8.3 3.6-12.8 3.6q-1.2 0-2.4-.2c-2-.1-3.6-.6-5-1.3-1.5 2.5-2.6 4.7-3.2 6.9-.8 2.9-.8 5.7 0 8.1 1 3 3.1 5.4 5.3 8q1 1.1 1.9 2.3.7.9 1.4 1.7c.9 1.3 1.9 2.5 2.9 3.6q2.6 2.6 5.2 3.1c2.1.3 4.5-.3 7.2-1.9q-3.2-1.6-5.9-4.6c-.5-.5-.5-1.4.1-1.9.5-.5 1.4-.5 1.9.1 2 2.2 4.1 3.7 6.3 4.5 2.5.9 5.1.9 7.2-.1 1.8-.9 3.1-2.5 3.6-4.2-2.6-.2-5.2-1.2-7.1-2.9-.5-.5-.6-1.4-.1-2 .5-.5 1.4-.6 2 0 2 1.9 5.3 2.7 8.2 2 2.8-.7 5.4-2.7 7-5.4 1.5-2.5 2.1-5.7 1.7-8.9q-.3-2.8-1.6-4c-.5-.4-1.3-.6-1.9-.6-.3 0-.7.2-1 .5q-.1.1-.2.1c-.4 3.4-1.7 6.6-2.9 9.4-.2.6-.8.9-1.3.9q-.3 0-.5-.1c-.7-.3-1-1.1-.7-1.8 1.4-3.4 2.8-6.9 2.8-10.5.1-3.2-1.2-6.5-3.3-8.9-2-2.2-4.8-3.8-7.7-4.3z" class="s1"/>
    <path d="M411.4 215.9q.4.7.6 1.4c.2-.2.3-.4.5-.6.4-.6 1.3-.8 1.9-.4.6.5.8 1.3.3 1.9-3.5 5-9.4 8-15.4 8q-1.6 0-3.2-.3c-.7-.1-1.2-.8-1.1-1.5.1-.8.9-1.3 1.6-1.2q.1.1.2.1-.5-.9-.9-1.8-.3.2-.6.5c-.6.5-1.3 1.1-1.8 1.7q-.2 1.8-.6 3.6c.4.8.9 1.5 1.6 2 1.2.9 2.8 1.5 5.1 1.7 4.6.5 9.4-.6 13.5-3 2.5-1.6 4.4-3.5 5.3-5.6 1.1-2.4 1-5.1-.3-7-1-1.4-2.5-1.9-4.1-1.9-1 0-2 .2-3.1.5q0 1 .5 1.9zM105.1 232.4c-1.4.7-3 1.2-5 1.3q-1.2.2-2.4.2c-4.5 0-9-1.3-12.8-3.6-3.1-1.9-5.2-4.2-6.4-6.8q-.5-1-.7-2c-2.9.5-5.7 2.1-7.7 4.3-2.1 2.4-3.4 5.7-3.3 8.9 0 3.6 1.4 7.1 2.8 10.5.3.7 0 1.5-.7 1.8q-.2.1-.5.1c-.5 0-1.1-.3-1.3-.9-1.2-2.8-2.5-6-2.9-9.4q-.1 0-.2-.1c-.3-.3-.7-.5-1-.5-.6 0-1.4.2-1.9.6q-1.3 1.2-1.6 4c-.4 3.2.2 6.4 1.7 8.9 1.6 2.7 4.2 4.7 7 5.4 2.9.7 6.2-.1 8.2-2 .6-.6 1.5-.5 2 0 .5.6.4 1.5-.1 2-1.9 1.7-4.5 2.7-7.1 2.9.5 1.7 1.8 3.3 3.6 4.2 2.1.9 4.7 1 7.2.1 2.2-.8 4.3-2.3 6.3-4.5.5-.6 1.4-.6 1.9-.1.6.5.6 1.4.1 1.9q-2.7 3-5.9 4.6c2.7 1.6 5.1 2.2 7.2 1.9q2.6-.5 5.2-3.1c1-1.1 2-2.3 2.9-3.6q.7-.9 1.4-1.7.9-1.2 1.9-2.3c2.2-2.6 4.3-5 5.3-8 .7-2.2.7-4.7.2-7.3l-.4-1.4c-.6-2-1.6-4-3-6.3z" class="s1"/>
    <path d="M81.3 215.4c-1.3 1.9-1.4 4.6-.3 7 .9 2.1 2.8 4 5.3 5.6 4.1 2.4 8.9 3.5 13.5 3 2.3-.2 3.9-.8 5.1-1.7.5-.3.8-.7 1.1-1.1q-.5-2.6-.8-5.2-.5-.6-1.1-1-.3-.3-.6-.5-.4.9-.9 1.8.1 0 .2-.1c.7-.1 1.5.4 1.6 1.2.1.7-.4 1.4-1.1 1.5q-1.6.3-3.2.3c-6 0-11.9-3-15.4-8-.5-.6-.3-1.4.3-1.9.6-.4 1.5-.2 1.9.4.2.2.3.4.5.6q.2-.7.6-1.4.5-.9.5-1.9c-2.9-.7-5.6-.8-7.2 1.4z" class="s1"/>
    <path id="&lt;Compound Path&gt;" d="M246.5 338.3c81.7 0 145.7-58.8 145.7-133.9 0-48-25.6-84.6-69-103.4-6.9 5.4-15.1 9.2-23.7 10.5q-3.6.5-7.2.5c-11.4 0-22.7-3.9-31.8-10.8 1.8 6.8 1.9 13.9 1.6 20-.3 7.2-1 16.4-4.7 24.7-3.7 8.7-10.2 15.2-17.7 17.8-2.2.8-4.5 1.3-6.7 1.8-3.9.8-7.6 1.5-10.5 3.8l-2 1.5-.2-2.5c-1.2-13.3-2.5-27-.3-40.6 1.3-7.9 3.7-15.1 7.2-21.3h-.1c-5.8 1.4-11.8 1.8-17.4 1.8-3.3 0-6.5-.2-9.4-.4-12.3-.8-21.8-2.5-30-5.5-40.4 19-63.6 54.7-63.6 102.1 0 77.6 58.8 133.9 139.8 133.9zm-20.9-73.4c.5.5.6 1.4 0 1.9-.2.3-.6.4-1 .4-.3 0-.6-.1-.9-.3-3.4-3.2-3.7-9.1-.5-12.6.5-.6 1.4-.6 1.9-.1.6.5.6 1.4.1 1.9-2.1 2.4-2 6.6.4 8.8zm37.4-.5c1.8-1.8 2.2-5 .9-7.3-.4-.6-.2-1.5.4-1.8.7-.4 1.5-.2 1.9.4 2 3.3 1.4 7.9-1.3 10.6-.3.3-.6.4-1 .4-.3 0-.7-.1-.9-.4-.6-.5-.6-1.4 0-1.9zm124.3-64.9c0 .8-.6 1.4-1.4 1.4-.8 0-1.4-.6-1.4-1.4v-2.8c0-.8.6-1.4 1.4-1.4.8 0 1.4.6 1.4 1.4zm-11-44.7c.7-.4 1.5-.1 1.9.5a64.9 64.9 0 0 1 8.7 31.3c0 .7-.6 1.4-1.4 1.4-.7 0-1.3-.6-1.3-1.4-.2-10.5-3.1-20.8-8.4-29.9-.3-.7-.1-1.5.5-1.9zM274 201.7c-5.9 2.1-10.7 7.1-12.5 13.1-.2.6-.8 1-1.3 1q-.2 0-.5-.1c-.7-.2-1.1-.9-.9-1.7 2.2-6.8 7.6-12.5 14.3-14.9.7-.2 1.5.1 1.8.8.2.7-.1 1.5-.9 1.8zm-18.9 19.5c11.2.8 22.1 1 32.6.4q1.3-.1 2.7-.2 4-.2 7.9-.6c.1-.3.3-.5.6-.6 3.9-1.6 6.7-5.6 6.7-9.9 0-.7.6-1.2 1.4-1.3.7 0 1.3.6 1.3 1.4 0 3.7-1.7 7.2-4.4 9.7l3.2-.4h.5c2.8-.9 5.3-3.1 6.5-5.8.3-.7 1.1-1 1.8-.7.7.3 1 1.1.7 1.8-2.1 4.6-6.9 7.9-12 8q-.4 0-.7-.2-1 .2-2 .3 0 1.2.1 2.3c.2 19.8-8.9 36-20.3 36.2h-.1c-5.7 0-10.9-3.8-14.9-10.7-3.8-6.7-5.9-15.6-6-25v-1.6c-1.9-.1-3.9-.2-5.8-.3-.8-.1-1.4-.7-1.3-1.5.1-.7.7-1.3 1.5-1.3zm6.9 37.2c.7.2 1.1 1 .8 1.7-.3.7-1.1 1.1-1.8.8-10.5-4.2-22.9-3.9-33.2.8q-.3.1-.6.1c-.5 0-1-.3-1.2-.8-.4-.7-.1-1.5.6-1.8 11.2-5 24.1-5.3 35.4-.8zm-35.9-43.2c-2-6-6.9-10.9-12.9-12.9-.7-.2-1.1-1-.8-1.7.2-.7 1-1.1 1.7-.9 6.7 2.3 12.3 7.9 14.6 14.6.2.8-.2 1.5-.9 1.8h-.4c-.6 0-1.1-.3-1.3-.9zm-54.5-.5c.7-.3 1.5 0 1.8.7 1.3 2.7 3.8 4.7 6.6 5.6h.5q1.6.2 3.3.4c-2.8-2.5-4.6-6-4.7-9.7 0-.7.6-1.4 1.4-1.4.7 0 1.3.6 1.4 1.3.1 4.2 2.9 8.2 6.9 9.7.2.1.5.3.6.6q4 .3 8.1.5 1.2 0 2.4.1c10.6.3 21.5 0 32.7-1 .8-.1 1.4.5 1.5 1.2.1.8-.5 1.4-1.2 1.5q-3 .3-5.9.5.1.7.1 1.5c.2 19.8-8.9 36-20.3 36.1h-.1c-5.6 0-10.9-3.8-14.8-10.6-3.8-6.7-6-15.6-6.1-25.1v-2.3l-2-.2q-.3.2-.7.2c-5.1-.1-9.9-3.2-12.1-7.8-.3-.6-.1-1.5.6-1.8zm-57.8 5.9h-.3c-.6 0-1.2-.4-1.3-1l-.4-1.6c-.2-.8.2-1.5 1-1.7.7-.2 1.4.3 1.6 1l.4 1.6c.2.8-.2 1.5-1 1.7zm11.5-65.2c-7.8 16.6-11.6 35-10.9 53.3 0 .8-.6 1.4-1.3 1.4h-.1c-.7 0-1.3-.5-1.3-1.3-.7-18.7 3.2-37.6 11.1-54.6.4-.7 1.2-.9 1.9-.6.6.3.9 1.1.6 1.8z" style="fill:#ea535a"/>
    <path d="M200.5 105.1c7.3.5 16.9.8 26-1.4q1.3-.3 2.7-.7c2.8-4.3 6.1-7.9 9.9-10.9q1-.8 2.3-1.6c-17.8-3.2-35.8-3.5-53.7-.8-.7.1-1.4-.4-1.5-1.1-.1-.8.4-1.5 1.1-1.6 18.2-2.7 36.5-2.5 54.6.8l-1.6-4.7q-3.3-3.2-6.9-5.6c-6.6-4.5-14-7.2-21.3-7.5-8-.5-16.1 1.8-22.9 4.1q-2.6.9-5.3 1.8c-5.7 2-11.6 4-17.7 5.2-7.6 1.4-14.6 1.1-20.5-.8 4.8 7.6 12.5 14 22.2 18.1 8.8 3.7 18.8 5.8 32.6 6.7zM222.7 128.2c-2 12.4-1 25.2.1 37.6 3-1.6 6.4-2.3 9.6-3 2.2-.5 4.4-.9 6.4-1.6 6.8-2.5 12.7-8.4 16.1-16.4 3.5-7.9 4.2-16.8 4.5-23.7.3-7.1.1-15.6-2.8-23.2q-1.5-1.5-3-3.2c-.2-.2-.3-.4-.3-.7-1 .7-2 1.1-3.1 1.3q.1.2.1.4c-.5 17.2-5.4 34.1-14.3 48.9-.3.4-.7.6-1.2.6q-.3 0-.7-.2c-.6-.4-.8-1.2-.4-1.9 8.6-14.3 13.4-30.7 13.9-47.4v-.4c-1.3-.3-2.8-1.6-3.8-3-1.2.6-2.3 1.3-3 2-9.4 7.3-15.8 19.3-18.1 33.9zM258.2 86.5q-.4 1-.8 2.1c16.4-2.1 32.9-1.5 49.1 1.9.7.2 1.2.9 1 1.6-.1.7-.7 1.1-1.3 1.1h-.3c-16.4-3.5-33.1-4.1-49.7-1.7q-.2 0-.4-.1-.4.6-.9 1.1c.3.1.6.2.8.4 10.5 12.1 27.6 18.3 43.4 15.9 14.9-2.3 28.6-12.2 35.6-25.6-5 .8-10.6.4-17.3-1.4-2.7-.7-5.4-1.5-8-2.3-3.5-1.1-7.2-2.2-10.8-3-9.5-2-19.4-1.6-28.6 1.1-4.2 1.2-7.5 2.7-10.1 4.6q-.8 2.2-1.7 4.3z" class="s3"/>
    <path d="M232.7 49.5h.2c10.1 3.7 21.9 1.7 30.2-5.2-1.1-5-4-7.9-8.8-8.5-1.7-.2-3.6-.1-5.7.4l-1 .3c-4.9 1.1-11.1 2.5-13.6 6.8-1.1 1.9-1.4 4-1.3 6.2z" style="fill:#815346"/>
    <path d="M245.3 89.2c.5 1.7 2.2 3.4 3 3.5.9.2 3.1-.3 4.3-1.6 1.4-1.5 2.3-3.6 3.1-5.6 4.1-10.3 6.7-21.1 7.7-32.1q.3-3.3.1-5.9c-5.8 4.3-13 6.6-20.2 6.6-3.5 0-6.9-.6-10.2-1.6.4 1.9 1 3.9 1.7 5.7z" style="fill:#5e2617"/>
    <path d="M205.9 396.1c-1.2.3-2.4.7-3.2 1.4-1.3 1.2-1.5 3.2-1.3 4.7.3 1.6 1 3.1 1.8 4.6q.4-.3.8-.5c9.1-6 21-6.5 30.9-1.5.9-1.2 1.8-2.5 2.3-3.8.6-1.5.6-3 0-4.1-.8-1.6-2.9-2.5-6.4-2.8-8.4-.8-16.7-.2-24.9 2zM226.5 449.8c-.2-1-.3-2.3-.4-3.5-.2-1.4-.4-2.9-.5-3.9q-4.5.4-8.9.4c-.8 0-1.5-.1-2.3-.1v6.9q0 .4-.2.7c4.1 0 8.3-.2 12.3-.5zM192.7 443.9q.2 1.5 1.7 2.7c.9.7 2 1.2 3.4 1.7l-.2-7v-.1l-5.2-1q.1 1.8.3 3.7z" class="s1"/>
    <path d="M234.8 407.8c-4.4-2.5-9.3-3.7-14.1-3.7-5.4 0-10.7 1.5-15.2 4.5-5.2 3.4-13.3 11.6-13.2 28.8q.7.1 1.4.3c.9-7.3 3-13.4 6.2-18.3 4.2-6.2 10.4-10.3 16.9-11.2 7.4-1.1 15.5 2.1 21.1 8.2 4.6 4.9 7.7 11.6 9 19.5q1.2-.3 2.4-.7c0-12.2-5.2-22.1-14.5-27.4zM200.5 449c3.2.8 7.2 1.1 11.4 1.2q-.2-.3-.2-.6v-7q-5.7-.2-11.4-1l.2 7.2v.2zM249.2 438.1q-4.6 1.3-9.2 2.3c.7 2.3 1.1 4.6 1.2 7q-.1.4-.3.7c7.9-1.5 8.1-5.4 8.3-9.8zM228.8 446c.1 1.3.3 2.6.4 3.6 3.7-.3 7-.7 9.7-1.1-.3-.3-.5-.6-.5-1q0-3.3-1-6.3-.1-.2-.1-.3-4.5.8-9 1.3c.2 1 .3 2.4.5 3.8z" class="s1"/>
    <path d="M202.2 421c-3 4.5-5 10.3-5.9 17.2 15.9 2.9 32.3 2.4 48-1.6-.9-5.4-3.1-12.7-8.4-18.4-5-5.4-12.2-8.2-18.7-7.3-5.7.8-11.3 4.6-15 10.1zM192.6 224.9q-2-.1-4-.3-.1 1-.1 2c.1 9 2.2 17.4 5.7 23.7 3.5 6 7.9 9.3 12.5 9.3h.1c9.9-.1 17.8-15.1 17.6-33.3q0-.7-.1-1.4-2 .1-4.1.2.1.6.1 1.2c.2 16.6-7 29.2-13.5 29.2-4.5.1-9.4-5.7-12.1-14.6q2.5-2 5-4.1c.3-.3.7-.6.7-1 .1-.7-.7-1.1-1.4-1.3q-3-.9-6-1.9-.3-2.9-.4-6v-1.7zM263.4 224.4v1.5c.1 8.9 2.1 17.4 5.7 23.7 3.5 6 8 9.3 12.6 9.2 9.8-.1 17.7-15 17.5-33.3v-2.1c-1.4.2-2.8.3-4.1.4v1.7q.1 3.2-.2 6.1-3 1-6 1.9c-.6.3-1.4.7-1.4 1.4.1.4.4.7.8 1q2.5 2 5 3.9c-2.5 9-7.2 14.9-11.7 14.9-6.5.1-13.9-12.2-14.1-28.9v-1.2q-2-.1-4.1-.2z" class="s1"/>
    <path d="M366.5 127.6q-6.8-7.4-15.1-13.6c-7.7-5.8-16.4-10.8-25.8-15 5.4-4.7 9.8-10.6 12.8-17.1l1.1-2.7-2.7.8c-5.2 1.4-11.2 1.1-18.7-.8-2.6-.7-5.3-1.5-7.9-2.3-3.6-1.1-7.3-2.3-11.1-3.1-9.8-2-20.2-1.6-29.9 1.2-3.1.9-5.7 2-8 3.2 2.5-8 4.1-16.2 4.9-24.5 1.5-15.6-5.4-19.8-11.5-20.6-2-.2-4.2-.1-6.6.5l-1 .2c-5.5 1.3-12.2 2.8-15.4 8.2-3.1 5.2-1.3 11.5.6 17.1l6.4 18.8q-1.8-1.4-3.6-2.7c-7.1-4.8-15-7.6-22.8-8-8.4-.4-16.8 1.9-23.8 4.3l-5.4 1.8c-5.6 2-11.4 4-17.3 5.1-8.6 1.6-16.4.9-22.5-2.1l-3.6-1.7 1.8 3.6c4.7 9.6 13.8 17.7 25.4 22.7q.1.1.2.1c-7.5 3.7-14.6 8.1-21 13q-8 6.2-14.6 13.6c-35.6 1.1-75.3 21.2-84.4 32.8-3.4 4.4-3.3 8.1-2.6 10.5 1.3 4.9 6.2 8.3 15.9 15.2 7.7 5.5 23.8 17 27.5 24.9-3.1-.5-6.4-.2-8.7 2.8-1 1.4-1.5 3.2-1.6 5-3.6.6-7 2.4-9.4 5.2-2.4 2.6-3.8 6.1-4 9.7q-.4-.2-.9-.2c-1.4-.1-2.8.4-3.8 1.3q-2.2 1.8-2.6 5.6c-.5 3.8.2 7.6 2 10.7 2 3.4 5.2 5.8 8.8 6.6l.8.2c.4 2.8 2.4 5.4 5.3 6.7 1.4.7 3 1.1 4.7 1.1.9 0 1.9-.2 2.8-.4 3.3 2.4 6.3 3.6 9.2 3.6q.8 0 1.6-.1c2.4-.5 4.6-1.7 6.7-3.9 1.2-1.2 2.2-2.5 3.2-3.8q.7-.9 1.3-1.7.9-1.1 1.9-2.2c2.3-2.7 4.6-5.4 5.8-8.8 6.7 20.8 18.3 39.4 34.3 54.5 15.8 14.8 35.2 25.6 56.7 31.9.5 13.9 2.9 32.3 7.5 57.7q-2.1.4-4.2 1c-1.5.4-3 .8-4.3 2-1.8 1.6-2.6 4.3-2.2 7.1.4 2.2 1.4 4.2 2.4 5.9-6.2 5.3-13.4 15.9-11.1 35.7q.3 2.7 2.8 4.6c4.2 3.2 13.1 4.2 22.2 4.2 10.2 0 20.7-1.2 25.8-2.1 10.6-1.7 10.9-8 11.1-12.5l.1-.7c.7-13.8-4.7-25.2-14.7-31.5.9-1.3 1.9-2.7 2.5-4.2.8-2.3.8-4.6-.2-6.4-1.7-3.2-5.7-4-8.5-4.2q-2.7-.3-5.4-.4c-4.1-23.2-6.4-39.9-7.2-52.4 9.1 1.6 18.5 2.4 28 2.4 10.2 0 20.2-.9 29.9-2.7 1.7 5.4 3.2 10.3 4.6 14.8 7.9 25.8 11.2 36.9 16.7 47.6q-.1.1-.3.1c-2.5 1.2-4.2 3.5-4.4 5.8-.3 2.4.8 4.3 1.9 6.2.7 1.2 1.4 2.4 1.6 3.6.3 2-.6 4-1.5 6.2q-.4.9-.8 1.7c-1.8 4.6-2.1 9.5-.8 13.8 1.4 4.7 4.7 8.6 8.8 10.6 3.5 1.6 7.2 1.9 10.7 1.9q1.3-.1 2.5-.1l52.1-.9c1.8 0 4 0 5.9-1.1 2.6-1.5 3.8-4.4 4.5-6.5 2.9-8.8 2.1-18.2-2.2-25.1-4.8-7.7-14-12.7-24-12.8-5.8 0-11.9 1.4-17.7 4.3-.3.2-.9.6-1.9 1.3-.7.5-2.2 1.5-3.2 2.1.1-.8.5-1.9.7-2.6.3-1.3.6-2.1.6-2.7.2-3.6-1.5-6.8-4.1-8.3-2.4-1.2-5.2-.9-7.3-.7l-4 .5c-6.5-11.4-9.3-20.6-18.2-49.7q-1.9-6.3-4.2-13.7c21.9-6.2 41.8-17 58.4-31.7 17.5-15.6 30.2-34.9 37.3-56.3.1.6.2 1.1.4 1.7 1.2 3.5 3.5 6.2 5.8 8.9q1 1.1 1.9 2.2.6.8 1.3 1.7c1 1.3 2 2.6 3.2 3.8 2.1 2.2 4.3 3.4 6.7 3.9q.8.1 1.6.1c2.9 0 5.9-1.2 9.2-3.6.9.2 1.9.4 2.8.4 1.7 0 3.3-.4 4.7-1.1 2.9-1.3 4.9-3.9 5.3-6.7l.8-.2c3.6-.8 6.8-3.2 8.8-6.6 1.8-3.1 2.5-6.9 2-10.7q-.4-3.8-2.6-5.6c-1-1-2.5-1.4-3.8-1.3q-.5 0-.9.2c-.2-3.6-1.6-7.1-4-9.7-2.4-2.8-5.8-4.6-9.4-5.2-.1-1.8-.6-3.6-1.6-5-2.3-3-5.6-3.3-8.7-2.8 3.7-7.9 19.8-19.4 27.5-24.9 9.7-6.9 14.6-10.3 15.9-15.2.7-2.4.8-6.1-2.6-10.5-9.3-11.8-49.9-32.3-85.9-32.8zM237.2 396.9c.6 1.1.6 2.6 0 4.1-.5 1.3-1.4 2.6-2.3 3.8-9.9-5-21.8-4.5-30.9 1.5q-.4.2-.8.5c-.8-1.5-1.5-3-1.8-4.6-.2-1.5 0-3.5 1.3-4.7.8-.7 2-1.1 3.2-1.4 8.2-2.2 16.5-2.8 24.9-2 3.5.3 5.6 1.2 6.4 2.8zm-20 14c6.5-.9 13.7 1.9 18.7 7.3 5.3 5.7 7.5 13 8.4 18.4-15.7 4-32.1 4.5-48 1.6.9-6.9 2.9-12.7 5.9-17.2 3.7-5.5 9.3-9.3 15-10.1zm20.2 30.3q1 3 1 6.3c0 .4.2.7.5 1-2.7.4-6 .8-9.7 1.1-.1-1-.3-2.3-.4-3.6-.2-1.4-.3-2.8-.5-3.8q4.5-.5 9-1.3 0 .1.1.3zm-25.7 1.4v7q0 .3.2.6c-4.2-.1-8.2-.4-11.4-1.2v-.2l-.2-7.2q5.7.8 11.4 1zm-14.1-1.4v.1l.2 7c-1.4-.5-2.5-1-3.4-1.7q-1.5-1.2-1.7-2.7-.2-1.9-.3-3.7l5.2 1zm16.8 8.4v-6.9c.8 0 1.5.1 2.3.1q4.4 0 8.9-.4c.1 1 .3 2.5.5 3.9.1 1.2.2 2.5.4 3.5-4 .3-8.2.5-12.3.5q.2-.3.2-.7zm26.5-1.5q.2-.3.3-.7c-.1-2.4-.5-4.7-1.2-7q4.6-1 9.2-2.3v.2c-.2 4.4-.4 8.3-8.3 9.8zm8.4-12.9q-1.2.4-2.4.7c-1.3-7.9-4.4-14.6-9-19.5-5.6-6.1-13.7-9.3-21.1-8.2-6.5.9-12.7 5-16.9 11.2-3.2 4.9-5.3 11-6.2 18.3q-.7-.2-1.4-.3c-.1-17.2 8-25.4 13.2-28.8 4.5-3 9.8-4.5 15.2-4.5 4.8 0 9.7 1.2 14.1 3.7 9.3 5.3 14.5 15.2 14.5 27.4zm75.5-34.6c2 1.1 2.8 3.7 2.7 5.8 0 .3-.3 1.3-.6 2q-.2.9-.4 1.6-.1.1-.2.1c-4 1.8-8.5 2.6-12.8 2.4-.8 0-1.4.5-1.5 1.3 0 .7.6 1.4 1.3 1.4q.8.1 1.6.1c3.8 0 7.6-.8 11.1-2.2q0 .3.1.5c-3.8 3-7.3 6.4-10.4 10-.5.6-.4 1.5.2 2q.4.3.9.3c.3 0 .7-.2 1-.5 3.2-3.8 6.8-7.2 10.7-10.2q.2-.1.4-.4c1-.4 2.4-1.3 4.7-2.8.7-.5 1.4-1 1.7-1.1 5.3-2.7 11-4.1 16.4-4.1-2.9 3.2-4.9 7.5-5.8 12.6-.9 5.5-.4 11.1.1 16.4l-38.8 1.2c-.5-6.3-3.4-12.5-7.9-16.9q-.2-.2-.4-.2c.3-1.3.5-2.6.3-3.9-.3-1.7-1.1-3.2-1.9-4.6-.9-1.6-1.8-3-1.6-4.5.2-1.7 1.6-3 2.9-3.6 1.7-.9 3.7-1.1 5.7-1.3l14.8-1.7c1-.2 1.9-.2 2.8-.2 1.1 0 2 .1 2.9.5zm-27.3 23.1q.2-.5.4-1.1c3.7 3.9 6.1 9.1 6.6 14.5l-8.5.2c-1.1-3.7-.8-8 .8-12q.3-.8.7-1.6zm12.9 15.9v7.8q0 .2.1.4c-2.5-.2-4.9-.5-7.1-1.6-2.6-1.2-4.9-3.4-6.3-6.2zm2.7 7.8v-7.9l10.5-.3q.5 4.2 0 8.4l-8.3.2h-2.2v-.4zm39.1-9 .2 8.6v.2l-12.6.2.1-8.7zm10.9-.3c.6 2.9.6 6-.1 8.9l-7.9.2q.1-.1.1-.2l-.3-8.6zm-25.9 9.3-10.7.2q.4-4.2 0-8.4l10.8-.4zm28.7-.5c.6-2.9.6-6 0-8.9l10.5-.3q-.4 1.7-.9 3.5c-.6 1.6-1.5 3.9-3.2 4.9-1.4.7-3.1.8-4.7.8zm11-12-28 .8c-.5-5.2-1-10.7-.1-15.9.9-5.4 3.3-9.9 6.8-12.7 7.5 1.2 14.3 5.3 18 11.2 2.8 4.7 4 10.6 3.3 16.6zm41.4-219.5c1.3 1.8 1.4 4.6.3 7-.9 2-2.8 4-5.3 5.5-4.1 2.5-8.9 3.6-13.5 3.1-2.3-.2-3.9-.8-5.1-1.7-.7-.5-1.3-1.2-1.6-2q.4-1.8.6-3.6c.5-.6 1.1-1.2 1.8-1.8l.6-.4q.4.9.9 1.7h-.2c-.7-.1-1.5.4-1.6 1.1-.1.8.4 1.5 1.1 1.6q1.6.3 3.2.3c6 0 11.9-3 15.4-8 .5-.6.3-1.4-.3-1.9-.6-.4-1.5-.3-1.9.4-.2.2-.3.4-.5.6q-.2-.7-.6-1.4-.5-.9-.5-1.9c1.1-.3 2.1-.5 3.1-.5 1.6 0 3 .5 4.1 1.9zm-23.6-.3q.1 1.8.5 3.7-.5.3-.9.7l.4-4.4zm35.2 30.1c-.2.7.1 1.5.8 1.7q.2.2.5.2c.5 0 1-.4 1.3-.9 1.2-2.8 2.5-6 2.9-9.4q.1 0 .2-.1c.3-.4.7-.5 1-.5.6-.1 1.4.2 1.8.6q1.4 1.1 1.7 3.9c.4 3.3-.2 6.4-1.7 9-1.6 2.7-4.2 4.7-7 5.3-2.9.7-6.2-.1-8.3-2-.5-.5-1.4-.4-1.9.1-.5.6-.5 1.4.1 1.9 1.9 1.8 4.5 2.8 7.1 3-.5 1.7-1.8 3.3-3.6 4.2-2.1.9-4.7 1-7.2.1-2.2-.8-4.3-2.4-6.3-4.5-.5-.6-1.4-.6-1.9-.1-.6.5-.6 1.3-.1 1.9q2.7 3 5.8 4.6c-2.6 1.6-5 2.2-7.1 1.8q-2.6-.4-5.2-3c-1-1.1-2-2.3-2.9-3.6q-.7-.9-1.4-1.7-.9-1.2-1.9-2.3c-2.2-2.6-4.3-5-5.3-8-.8-2.4-.8-5.2 0-8.1.6-2.2 1.7-4.5 3.2-6.9 1.4.7 3 1.1 5 1.3q1.2.2 2.4.2c4.5 0 8.9-1.3 12.8-3.6 3.1-1.9 5.2-4.2 6.4-6.8q.5-1 .7-2c2.9.5 5.7 2 7.7 4.3 2.1 2.4 3.4 5.7 3.3 8.9 0 3.6-1.4 7.1-2.9 10.5zm-321.4 2.2c-1 3-3.1 5.4-5.3 8q-1 1.1-1.9 2.3-.7.8-1.4 1.7c-.9 1.3-1.9 2.5-2.9 3.6q-2.6 2.6-5.2 3c-2.1.4-4.5-.2-7.2-1.8q3.2-1.6 5.9-4.6c.5-.6.5-1.4-.1-1.9-.5-.5-1.4-.5-1.9.1-2 2.1-4.1 3.7-6.3 4.5-2.5.9-5.1.8-7.2-.1-1.8-.9-3.1-2.5-3.6-4.2 2.6-.2 5.2-1.2 7.1-3 .5-.5.6-1.3.1-1.9-.5-.5-1.4-.6-2-.1-2 1.9-5.3 2.7-8.2 2-2.8-.6-5.4-2.6-7-5.3-1.5-2.6-2.1-5.7-1.7-9q.3-2.8 1.6-3.9c.5-.4 1.2-.7 1.9-.6.3 0 .7.1 1 .5q.1.1.2.1c.4 3.4 1.7 6.6 2.9 9.4.2.5.7.9 1.3.9q.2 0 .5-.2c.7-.2 1-1 .7-1.7-1.4-3.4-2.8-6.9-2.8-10.5-.1-3.2 1.2-6.5 3.3-8.9 2-2.3 4.8-3.8 7.7-4.3q.2 1 .7 2c1.2 2.6 3.3 4.9 6.4 6.8 3.8 2.3 8.3 3.6 12.8 3.6q1.2 0 2.4-.2c2-.2 3.6-.6 5-1.3 1.4 2.2 2.4 4.3 3 6.3q.2.7.3 1.4c.6 2.6.6 5.1-.1 7.3zm-20.3-31.5q-.4.7-.6 1.4c-.2-.2-.4-.4-.5-.6-.4-.7-1.3-.8-1.9-.4-.6.5-.8 1.3-.3 1.9 3.5 5 9.4 8 15.4 8q1.6 0 3.2-.3c.7-.1 1.2-.8 1.1-1.6-.2-.7-.9-1.2-1.6-1.1h-.2q.5-.8.9-1.7l.6.4q.6.5 1.1 1.1.3 2.6.8 5.2c-.3.4-.6.8-1.1 1.1-1.2.9-2.8 1.5-5.1 1.7-4.6.5-9.4-.6-13.5-3.1-2.5-1.5-4.4-3.5-5.3-5.6-1.1-2.3-1-5.1.3-6.9 1.6-2.2 4.3-2.2 7.2-1.4q0 1-.5 1.9zm16.7 3.1q-.1-.1-.3-.2l.2-1.2q.1.7.1 1.4zm2-14.6c0-47.4 23.2-83.1 63.6-102.1 8.2 3 17.7 4.7 30 5.5 2.9.2 6.1.4 9.4.4 5.5 0 11.5-.5 17.4-1.8-3.4 6.2-5.8 13.4-7.1 21.3-2.2 13.5-.9 27.3.3 40.6l.2 2.5 2-1.5c2.9-2.3 6.6-3.1 10.5-3.9 2.2-.4 4.5-.9 6.7-1.7 7.5-2.7 14-9.2 17.7-17.8 3.6-8.3 4.4-17.6 4.7-24.7.3-6.1.2-13.2-1.6-20 9 6.9 20.4 10.8 31.8 10.8q3.6 0 7.2-.6c8.6-1.3 16.8-5 23.7-10.4 43.4 18.8 69 55.4 69 103.4 0 75.1-64 133.9-145.7 133.9-81 0-139.8-56.3-139.8-133.9zm39-124.1c5.9 1.9 12.9 2.2 20.5.8 6.1-1.2 12-3.2 17.7-5.2q2.7-1 5.3-1.9c6.8-2.2 14.9-4.5 22.9-4.1 7.3.4 14.6 3 21.3 7.6q3.6 2.4 6.9 5.6l1.6 4.7c-18.1-3.3-36.4-3.6-54.6-.8-.7.1-1.2.8-1.1 1.5.1.8.8 1.3 1.5 1.2 17.9-2.7 35.9-2.4 53.7.8q-1.3.8-2.3 1.6c-3.8 2.9-7.1 6.6-9.9 10.9q-1.4.4-2.7.7c-9.1 2.2-18.7 1.9-26 1.4-13.8-.9-23.8-3-32.6-6.7-9.7-4.2-17.4-10.5-22.2-18.1zm101.9-43.8 1-.3c2.1-.5 4-.6 5.7-.4 4.8.6 7.7 3.4 8.8 8.5-8.3 6.9-20.1 8.9-30.2 5.2h-.2c-.1-2.2.2-4.3 1.3-6.2 2.5-4.3 8.7-5.7 13.6-6.8zm-4.3 17.6c7.2 0 14.4-2.3 20.2-6.7q.2 2.7-.1 6c-1 11-3.6 21.8-7.7 32.1-.8 2-1.7 4-3.1 5.6-1.2 1.2-3.4 1.8-4.3 1.6-.8-.2-2.5-1.9-3-3.5l-10.5-31c-.7-1.8-1.3-3.8-1.7-5.7 3.3 1 6.7 1.6 10.2 1.6zm55.3 22.4c3.6.7 7.3 1.9 10.8 3 2.6.8 5.3 1.6 8 2.3 6.7 1.7 12.3 2.2 17.3 1.4-7 13.4-20.7 23.3-35.6 25.5-15.8 2.4-32.9-3.8-43.4-15.8-.2-.2-.5-.3-.8-.4q.5-.5.9-1.1.2.1.4 0c16.6-2.3 33.3-1.7 49.7 1.8h.3c.6 0 1.2-.4 1.3-1.1.2-.7-.3-1.5-1-1.6-16.2-3.4-32.7-4.1-49.1-1.9q.4-1.1.8-2.1.9-2.1 1.6-4.3c2.7-1.9 6-3.4 10.2-4.6 9.2-2.7 19.1-3.1 28.6-1.1zm-51 18.8v.4c-.5 16.7-5.3 33.1-14 47.4-.3.7-.1 1.5.5 1.9q.3.2.7.2c.5 0 .9-.2 1.2-.7 8.9-14.7 13.8-31.6 14.3-48.8q0-.2-.1-.4c1-.2 2.1-.7 3.1-1.3 0 .3.1.5.3.7q1.5 1.7 3 3.1c2.9 7.7 3.1 16.2 2.8 23.3-.3 6.9-1 15.8-4.5 23.7-3.4 8-9.3 13.9-16.1 16.3-2 .8-4.2 1.2-6.4 1.7-3.2.6-6.6 1.3-9.6 3-1.1-12.4-2.1-25.2-.1-37.7 2.3-14.5 8.7-26.6 18-33.9.8-.6 1.9-1.3 3.1-2 1 1.5 2.5 2.8 3.8 3.1zM70 172.8c-2.3-1.7-4.9-3.5-6.9-5.1 8.3-6.4 31.3-18.5 55.8-22.5-9.7 17-14.7 36.9-14.7 59.2 0 1.3.1 2.5.1 3.8-4.1-13.9-21.6-26.4-34.3-35.4zm359.8 0c-13.4 9.5-32.1 22.8-34.8 37.6q.1-3 .1-6c0-22.3-5.3-42.3-15.4-59.4 25 3.8 48.5 16.2 57 22.7-2 1.6-4.6 3.4-6.9 5.1z" class="s6"/>
    <path d="M124.7 153.6c-.7-.3-1.5 0-1.9.6-7.9 17-11.8 35.9-11.1 54.6 0 .8.6 1.4 1.3 1.4h.1c.7-.1 1.3-.7 1.3-1.5-.7-18.3 3.1-36.7 10.9-53.3.3-.7 0-1.5-.6-1.8zM114.4 217.3c-.2-.7-.9-1.1-1.6-1-.8.2-1.2 1-1 1.7l.4 1.6c.1.6.7 1 1.3 1h.3c.8-.2 1.2-.9 1-1.7zM375.8 156.7c5.3 9.1 8.2 19.4 8.4 30 0 .7.6 1.3 1.3 1.3.8 0 1.4-.6 1.4-1.4-.2-11-3.2-21.8-8.7-31.3-.4-.6-1.2-.8-1.9-.5-.6.4-.8 1.3-.5 1.9zM385.9 195.3c-.8 0-1.4.6-1.4 1.4v2.8c0 .8.6 1.4 1.4 1.4.8 0 1.4-.6 1.4-1.4v-2.8c0-.8-.6-1.4-1.4-1.4zM183.1 224.3q.4 0 .7-.2l2 .2v2.4c.1 9.4 2.3 18.3 6.1 25 3.9 6.9 9.2 10.6 14.8 10.6h.1c11.4-.1 20.5-16.3 20.3-36.1q0-.7-.1-1.5 2.9-.2 5.9-.5c.7-.1 1.3-.7 1.2-1.5-.1-.7-.7-1.3-1.5-1.2-11.2 1-22.1 1.4-32.7 1q-1.2 0-2.4-.1-4.1-.2-8.1-.5c-.1-.2-.4-.4-.6-.6-4-1.5-6.8-5.4-6.9-9.6-.1-.8-.7-1.4-1.4-1.4-.8.1-1.4.7-1.4 1.4.1 3.7 1.9 7.2 4.7 9.7q-1.7-.2-3.3-.4-.3 0-.5.1c-2.8-1-5.3-3-6.6-5.7-.3-.7-1.1-1-1.8-.7-.7.4-.9 1.2-.6 1.9 2.2 4.5 7 7.6 12.1 7.7zm15.9 10.2c.7.2 1.5.6 1.4 1.3 0 .4-.4.7-.7 1q-2.5 2.1-5 4.1c2.7 8.9 7.6 14.7 12.1 14.6 6.5 0 13.7-12.6 13.5-29.2q0-.6-.1-1.2 2.1-.1 4.1-.2.1.7.1 1.4c.2 18.2-7.7 33.2-17.6 33.3h-.1c-4.6 0-9-3.3-12.5-9.3-3.5-6.3-5.6-14.7-5.7-23.7q0-1 .1-2 2 .2 4 .3v1.7q.1 3.1.4 6 3 1 6 1.9zM227.8 216.1c.7-.2 1.1-1 .9-1.7-2.3-6.8-7.9-12.4-14.6-14.7-.7-.2-1.5.2-1.7.9-.3.7.1 1.5.8 1.7 6 2 10.9 7 12.9 12.9.2.6.7 1 1.3 1q.2 0 .4-.1zM254.9 224c1.9.1 3.9.2 5.8.3v1.6c.1 9.4 2.2 18.3 6 25 4 6.9 9.2 10.7 14.9 10.7h.1c11.4-.1 20.5-16.3 20.3-36.1q-.1-1.2-.1-2.4l2-.2q.3.1.7.2c5.1-.2 9.9-3.4 12-8 .3-.7 0-1.5-.7-1.9-.7-.3-1.5 0-1.8.7-1.2 2.8-3.7 4.9-6.5 5.8h-.5l-3.2.4c2.7-2.5 4.4-6 4.4-9.7 0-.8-.6-1.4-1.3-1.4-.8.1-1.4.6-1.4 1.4 0 4.2-2.8 8.2-6.7 9.8-.3.1-.5.3-.6.6q-3.9.4-7.9.6-1.4.1-2.7.2c-10.5.6-21.4.5-32.6-.3-.8-.1-1.4.5-1.5 1.2-.1.8.5 1.4 1.3 1.5zm26.7 30.7c4.5 0 9.2-5.9 11.7-14.9q-2.5-1.9-5-3.9c-.4-.3-.7-.6-.8-1 0-.7.8-1.1 1.4-1.4q3-.9 6-1.9.3-2.9.2-6.1v-1.7c1.3-.1 2.7-.2 4.1-.4v2.1c.2 18.3-7.7 33.2-17.5 33.3-4.6.1-9.1-3.2-12.6-9.2-3.6-6.3-5.6-14.8-5.7-23.7v-1.5q2.1.1 4.1.2v1.2c.2 16.7 7.6 29 14.1 28.9zM273.1 199.1c-6.7 2.4-12.1 8.1-14.3 15-.2.7.2 1.4.9 1.7h.5c.5 0 1.1-.4 1.3-.9 1.8-6 6.6-11.1 12.5-13.2.8-.3 1.1-1 .9-1.7-.3-.8-1.1-1.1-1.8-.9zM226 261c.2.5.7.8 1.2.8q.3 0 .6-.1c10.3-4.7 22.7-5 33.2-.8.7.3 1.5 0 1.8-.7.3-.7-.1-1.5-.8-1.8-11.3-4.5-24.2-4.2-35.4.8-.7.3-1 1.1-.6 1.8zM263.9 266.7c.4 0 .7-.1 1-.4 2.7-2.7 3.3-7.3 1.3-10.6-.4-.6-1.2-.8-1.9-.4-.6.3-.8 1.2-.4 1.8 1.3 2.3.9 5.5-.9 7.3-.6.5-.6 1.4 0 1.9.2.3.6.4.9.4z" class="s6"/>
    <path d="M225.1 254.2c-.5-.5-1.4-.5-1.9.1-3.2 3.5-2.9 9.4.5 12.6.3.2.6.3.9.3.4 0 .8-.1 1-.4.6-.5.5-1.4 0-1.9-2.4-2.2-2.5-6.4-.4-8.8.5-.5.5-1.4-.1-1.9z" class="s6"/>
  </g>
</svg>