<svg xmlns="http://www.w3.org/2000/svg" xmlns:xlink="http://www.w3.org/1999/xlink" width="1024" height="1024" viewBox="0 0 768 768"><g data-name="H1" clip-path="url(#c)"><symbol id="d"><path d="M0 0v.86h.177V.459h.002a.206.206 0 0 0 .147.069.286.286 0 0 0 .147-.041.174.174 0 0 0 .078-.149V0H.374v.29c0 .027-.009.05-.026.07a.082.082 0 0 1-.066.03.104.104 0 0 1-.073-.031A.094.094 0 0 1 .177.29V0H0z"/></symbol><symbol id="e"><path d="M.072.078A.276.276 0 0 0 0 .271c0 .076.024.14.072.193a.237.237 0 0 0 .183.079.231.231 0 0 0 .168-.064v.049H.6V.015H.425v.058H.423A.216.216 0 0 0 .255 0a.238.238 0 0 0-.183.078m.15.28A.118.118 0 0 1 .188.271.12.12 0 0 1 .221.184.118.118 0 0 1 .308.151a.117.117 0 0 1 .119.12.116.116 0 0 1-.035.087.114.114 0 0 1-.084.034.119.119 0 0 1-.086-.034z"/></symbol><symbol id="f"><path d="M0 0v.86h.177V0H0z"/></symbol><symbol id="g"><path d="M0 0v.513h.177V0H0z"/></symbol><symbol id="h"><path d="M.551.513.297.135h.234V0H0l.254.378H.042v.135h.509z"/></symbol><use xlink:href="#d" transform="matrix(257.3106 0 0 -257.3106 172.885 496.182)" fill="#fffff9"/><use xlink:href="#e" transform="matrix(257.3106 0 0 -257.3106 320.576 500.042)" fill="#fffff9"/><use xlink:href="#f" transform="matrix(257.3106 0 0 -257.3106 492.969 496.182)" fill="#fffff9"/><use xlink:href="#g" transform="matrix(257.3106 0 0 -257.3106 552.92 496.182)" fill="#fffff9"/><use xlink:href="#h" transform="matrix(257.3106 0 0 -257.3106 598.719 496.182)" fill="#fffff9"/></g><g clip-path="url(#i)"><path d="M603.835 313.083c-31.617-.143-48.59 14.619-50.043 45.176-.018.384-.58.405-.633.025-1.41-9.984-1.138-19.083 1.396-26.992 8.364-26.106 40.266-29.53 62.902-21.268a1.511 1.511 0 0 1 .419 2.617c-17.657 14.118-15.254 52.65-58.23 35.951 6.713-20.86 20.474-33.785 44.19-35.51" fill="#fffff9" fill-rule="evenodd"/></g><g clip-path="url(#j)"><clipPath id="k"><path transform="scale(.24)" d="M0 0h3200v3200H0z"/></clipPath><g clip-path="url(#k)"><clipPath id="l"><path transform="scale(.24)" d="m322.72 769.835 658.32 215.11L546.98 2313.341l-658.32-215.11L322.72 769.835z"/></clipPath><g clip-path="url(#l)"><clipPath id="m"><path transform="scale(.24)" d="m322.72 769.835 658.32 215.11L546.98 2313.341l-658.32-215.11L322.72 769.835z"/></clipPath><g clip-path="url(#m)"><clipPath id="n"><path transform="scale(.24)" d="m322.72 769.835 658.32 215.11L546.98 2313.341l-658.32-215.11L322.72 769.835z"/></clipPath><g clip-path="url(#n)"><path d="M87.23 226.569c4.747 4.914 8.57 8.223.88 12.753-5.948 3.515-12.148 3.32-14.393 11.215-4.964 17.622 30.38 8.165 22.197 21.814-1.915 3.213-11.912 9.401-8.143 14.876 3.148 4.568 15.983-.694 17.7 7.333 1.155 5.484-8.427 9.484-1.715 14.97 2.111 1.746 5.88 1.498 8.022 3.202 2.548 2.03 1.089 5.092 6.154 5.303 9.224.39 7.055-7.766 8.36-13.22 1.621-6.742 7.008-8.486 11.462-13.37 5.591-6.149 4.003-9.01.396-15.629-3.913-7.195-.41-9.87 5.429-14.724 4.715-3.9 9.977-8.396 6.133-14.935-3.175-5.404-10.803-5.009-13.434-10.834-3.734-8.28 15.26-22.78 2.193-27.12-2.243-.751-5.095 1.011-7.41.43-3.001-.751-4.321-2.274-6.829-3.833-12.102-7.617-54.507 3.635-37.002 21.769" fill="#457b1c"/><path d="M170.687 238.714c-.46 6.593.855 11.425-6.32 13.834-6.666 2.26-11.318 2.024-12.137 10.578-.695 7.256.939 8.952-4.796 14.139-5.193 4.712-3.806 6.68-5.9 13.144-2.397 7.44-21.918 16.75-8.54 25.593-1.663 4.334-3.338 10.16 1.237 13.98 4.996 4.15 10.01-1.854 13.062-5.417 3.857-4.462 7.814-6.743 12.478-10.378 5.634-4.392 5.016-8.063 13.328-9.203 8.498-1.167 10.418-.24 13.194-8.789 2.105-6.496 4.107-10.895 11.703-12.92 5.314-1.416 15.125 2.037 19.315-2.74 5.532-6.291-3.268-12.406-2.674-18.005 0 0-.449-1.326-.444-1.342-.979-2.944 10.415-5.63 4.917-13.59-2.2-3.2-6.597-4.919-9.335-7.662-2.402-2.423-4.008-5.606-6.447-7.97-9.419-9.135-31.488-9.955-32.64 6.748" fill="#457b1c"/><path transform="matrix(.15942 .0521 .05198 -.15909 -339.696 600.978)" stroke-width="20" stroke-linecap="round" stroke-linejoin="round" fill="none" stroke="#2e5311" d="M2286.4 2784.9c-63.5-56-106.6-222.7-98-303.1 3.9 2.8 3.8 7.3 6.4 10.1M1895.7 2943.6c32.1-25.6 56.7-86.8 78-122.1 23.1-38.1 33.3-75 45.4-115.9 12.3-41.2 23.8-80 28.9-122.5 2-16.1 4-36.3 6.1-54.6 1-8.3 14.1-59.8 6.4-36.6"/><path d="M146.531 316.798c-4.48-.865-16.5-5.391-16.5-5.391s-12.372-3.444-16.5-5.392c0 0-34.907-9.856-46.057 41.33 0 0-29.198 122.674-18.474 169.176 0 0 1.596 11.262 9.17 14.81 8.208 1.609 16.146-6.538 16.146-6.538 36.112-31.198 84.983-147.444 84.983-147.444 21.21-47.9-12.768-60.55-12.768-60.55" fill="#f79535"/><path transform="matrix(.15942 .0521 .05198 -.15909 -339.696 600.978)" stroke-width="30" stroke-linecap="round" stroke-linejoin="round" fill="none" stroke="#f47a36" d="M1963.6 2305.1H2110M2133 2163.2h160.2M1954.4 2039.5c69.2 0 137.3 4.4 206 4.6M2041.4 1888.4c50.5 0 101.4 6.7 151.1 4.6M2013.9 1719c37.7-16.2 91.9-.3 132.8 0M2036.8 1439.2c105.4-1.6 123.6 2.4 155.7 5.1M2141.6 1574.8h91.5M2187.3 2337.2h142.5"/></g></g></g></g></g></svg>